#!OML:ASF F:\VICON\USERDATA\INSTALL\rory3\rory3.ASF
:FULLY-SPECIFIED
:DEGREES
1819
root 4.15842 16.7311 -3.70783 -13.3046 -63.7826 9.4599
lowerback 11.8302 0.307953 -0.00103907
upperback 5.41635 0.25345 -0.00305627
thorax -0.976822 0.0612741 -0.0328605
lowerneck -0.334154 2.07491 -5.36334
upperneck 14.2512 2.1536 5.66729
head 4.17144 0.994265 2.70007
rclavicle 7.51406e-014 -1.98785e-014
rhumerus -9.12312 41.7505 -81.8528
rradius 98.1471
rwrist 9.75444
rhand -38.5338 -2.90579
rfingers 7.12502
rthumb -11.5541 -32.5673
lclavicle 7.51406e-014 -1.98785e-014
lhumerus 18.2249 -12.7087 55.3466
lradius 64.4359
lwrist -12.1611
lhand -25.1717 29.9207
lfingers 7.12502
lthumb 1.34573 59.8962
rfemur -25.7059 18.1078 5.58026
rtibia 60.2335
rfoot -29.6264 -3.36237
rtoes -16.3052
lfemur -21.5424 15.4531 -5.40243
ltibia 53.1734
lfoot -15.6306 16.7155
ltoes -3.98077
1820
root 4.16269 16.7238 -3.82228 -13.2111 -63.4156 9.5651
lowerback 12.3108 0.290729 0.0637503
upperback 5.54769 0.2288 -0.0249748
thorax -1.09903 0.0467073 -0.0901319
lowerneck -0.438473 2.01728 -5.06791
upperneck 13.7404 2.1319 5.3797
head 4.04398 0.993114 2.55576
rclavicle 4.08502e-014 -2.38542e-015
rhumerus -10.1572 41.303 -82.7394
rradius 94.9534
rwrist 9.26258
rhand -36.9129 -3.11283
rfingers 7.12502
rthumb -9.9906 -32.8557
lclavicle 4.08502e-014 -2.38542e-015
lhumerus 16.6089 -12.6189 56.0763
lradius 65.9191
lwrist -11.8639
lhand -25.2907 30.0483
lfingers 7.12502
lthumb 1.23082 60.0245
rfemur -26.3144 17.469 5.75514
rtibia 60.7868
rfoot -29.4739 -3.42368
rtoes -16.3299
lfemur -21.997 14.5232 -5.41768
ltibia 52.9867
lfoot -15.6876 16.5534
ltoes -3.88628
1821
root 4.16241 16.7163 -3.92923 -12.9917 -62.7959 9.56843
lowerback 12.6401 0.113083 0.111555
upperback 5.69777 -0.00718674 0.00777929
thorax -1.12013 -0.0737966 -0.0524006
lowerneck -0.619182 2.05407 -4.95452
upperneck 12.9987 2.26993 4.98723
head 4.29326 1.03693 2.66334
rclavicle -3.39922e-014 1.19271e-014
rhumerus -11.0149 41.2048 -83.4531
rradius 91.6961
rwrist 8.44321
rhand -35.6146 -3.48169
rfingers 7.12502
rthumb -8.73792 -33.2808
lclavicle -3.39922e-014 1.19271e-014
lhumerus 14.8614 -12.4121 56.4984
lradius 67.4174
lwrist -11.3427
lhand -24.7717 30.6697
lfingers 7.12502
lthumb 1.73201 60.6424
rfemur -26.7597 16.576 5.88273
rtibia 61.2018
rfoot -29.4476 -3.42774
rtoes -16.098
lfemur -22.5577 13.3577 -5.50423
ltibia 52.7203
lfoot -15.6349 16.1834
ltoes -4.66447
1822
root 4.15783 16.714 -4.02335 -12.7293 -61.976 9.56835
lowerback 12.8253 -0.176341 0.306699
upperback 5.80076 -0.3712 -0.0152238
thorax -1.1137 -0.253573 -0.137157
lowerneck -0.563343 2.10874 -4.97174
upperneck 12.5376 2.36073 5.01255
head 4.10999 1.08846 2.66441
rclavicle 9.38264e-014 -7.15625e-015
rhumerus -11.8735 41.2091 -84.2715
rradius 88.4059
rwrist 7.43546
rhand -33.8314 -4.15118
rfingers 7.12502
rthumb -7.01678 -34.0149
lclavicle 9.38264e-014 -7.15625e-015
lhumerus 12.9854 -12.3671 57.0784
lradius 68.774
lwrist -10.6151
lhand -24.6077 32.0448
lfingers 7.12502
lthumb 1.89046 62.0162
rfemur -27.0418 15.4762 5.8783
rtibia 61.4284
rfoot -29.5264 -3.0973
rtoes -15.3414
lfemur -23.2006 12.0114 -5.70423
ltibia 52.3427
lfoot -15.4388 15.7422
ltoes -4.5895
1823
root 4.14519 16.7279 -4.12243 -13.0991 -61.3431 10.1748
lowerback 13.0335 -0.302889 0.175505
upperback 5.93337 -0.561 -0.118839
thorax -1.08769 -0.351347 -0.144331
lowerneck -0.403157 2.10692 -4.99781
upperneck 12.0559 2.35172 5.2123
head 3.90569 1.09561 2.72169
rclavicle 3.43897e-014 -2.38542e-015
rhumerus -12.7049 41.0934 -85.0474
rradius 84.959
rwrist 7.07227
rhand -31.5417 -4.54547
rfingers 7.12502
rthumb -4.80617 -34.471
lclavicle 3.43897e-014 -2.38542e-015
lhumerus 11.1961 -12.5521 57.868
lradius 69.9132
lwrist -9.77438
lhand -25.1592 33.6837
lfingers 7.12502
lthumb 1.35779 63.6591
rfemur -27.1771 14.7158 5.64486
rtibia 61.5092
rfoot -29.617 -2.69449
rtoes -15.1145
lfemur -23.5059 10.7955 -6.11811
ltibia 51.8166
lfoot -15.2934 15.3779
ltoes -3.11769
1824
root 4.12187 16.7505 -4.22797 -13.8734 -60.9818 11.2562
lowerback 13.2083 -0.247959 -0.399989
upperback 6.02695 -0.56253 -0.192779
thorax -1.0795 -0.362878 0.104163
lowerneck -0.287874 2.08236 -5.01363
upperneck 11.733 2.31512 5.34231
head 3.77028 1.08462 2.75746
rclavicle 8.34896e-015 1.66979e-014
rhumerus -13.5936 41.0453 -85.7349
rradius 81.3409
rwrist 7.62601
rhand -29.6697 -4.85754
rfingers 7.12502
rthumb -2.99846 -34.8162
lclavicle 8.34896e-015 1.66979e-014
lhumerus 9.39785 -12.6986 58.8796
lradius 70.7583
lwrist -9.25317
lhand -25.6201 33.6937
lfingers 7.12502
lthumb 0.912648 63.6715
rfemur -27.3884 14.4389 5.25459
rtibia 61.5446
rfoot -29.6267 -2.46442
rtoes -15.0104
lfemur -23.5501 9.84598 -6.67482
ltibia 51.1749
lfoot -15.3684 15.0822
ltoes -2.21095
1825
root 4.09493 16.7701 -4.32593 -14.2023 -60.7398 11.9439
lowerback 13.2949 -0.184126 -0.83477
upperback 6.01321 -0.529553 -0.161469
thorax -1.13632 -0.353819 0.377903
lowerneck -0.0862066 2.03883 -4.95857
upperneck 11.5567 2.25641 5.29675
head 3.67316 1.05552 2.72061
rclavicle -4.27387e-014 1.98785e-014
rhumerus -14.5307 41.2246 -86.4153
rradius 77.5889
rwrist 8.72294
rhand -28.2407 -5.58978
rfingers 7.12502
rthumb -1.61835 -35.5634
lclavicle -4.27387e-014 1.98785e-014
lhumerus 7.47792 -12.8535 60.0745
lradius 71.4419
lwrist -8.91888
lhand -25.3943 33.0656
lfingers 7.12502
lthumb 1.13072 63.0423
rfemur -27.7388 14.2449 5.07711
rtibia 61.5878
rfoot -29.5871 -2.47765
rtoes -14.4308
lfemur -23.6635 9.10119 -7.00574
ltibia 50.5287
lfoot -15.4435 14.7177
ltoes -2.78664
1826
root 4.07346 16.7808 -4.42218 -13.9698 -60.5674 12.1422
lowerback 13.2435 -0.152031 -0.974343
upperback 5.96013 -0.49856 -0.0884928
thorax -1.16275 -0.339877 0.527979
lowerneck 0.0760271 2.02131 -4.87813
upperneck 11.5596 2.22285 5.27412
head 3.64546 1.03897 2.69338
rclavicle 4.96962e-015 -1.59028e-015
rhumerus -15.3785 41.5881 -87.0837
rradius 73.7561
rwrist 10.1949
rhand -26.5955 -6.48695
rfingers 7.12502
rthumb -0.0293729 -36.4667
lclavicle 4.96962e-015 -1.59028e-015
lhumerus 5.58379 -12.9106 61.3748
lradius 71.9006
lwrist -8.62414
lhand -24.9286 32.4724
lfingers 7.12502
lthumb 1.5805 62.4463
rfemur -28.3394 13.9845 5.153
rtibia 61.6761
rfoot -29.4414 -2.44833
rtoes -13.7296
lfemur -23.9756 8.41508 -7.03343
ltibia 49.9265
lfoot -15.7018 14.2321
ltoes -3.09064
1827
root 4.05641 16.789 -4.51794 -13.5805 -60.2669 12.1729
lowerback 13.1858 -0.16136 -0.985304
upperback 5.93185 -0.508169 -0.0558324
thorax -1.16079 -0.343969 0.569108
lowerneck 0.0871337 2.00952 -4.80653
upperneck 11.6499 2.18229 5.43971
head 3.67717 1.02677 2.73851
rclavicle -6.55989e-015 1.59028e-015
rhumerus -16.0883 42.0319 -87.7694
rradius 69.9517
rwrist 11.6574
rhand -24.4841 -6.98164
rfingers 7.12502
rthumb 2.00983 -36.9519
lclavicle -6.55989e-015 1.59028e-015
lhumerus 3.81127 -12.9527 62.6571
lradius 72.1773
lwrist -8.47384
lhand -24.5578 31.9699
lfingers 7.12502
lthumb 1.93869 61.9408
rfemur -28.9034 13.7369 5.30739
rtibia 61.7857
rfoot -29.3508 -2.48257
rtoes -13.6692
lfemur -24.3843 7.6599 -6.98318
ltibia 49.4077
lfoot -16.0889 13.7546
ltoes -3.06541
1828
root 4.0398 16.8053 -4.60428 -13.5064 -59.8923 12.4135
lowerback 13.2392 -0.151377 -1.05676
upperback 5.9504 -0.503884 -0.0512155
thorax -1.1694 -0.343039 0.61391
lowerneck 0.103229 1.94726 -4.70138
upperneck 11.6317 2.08052 5.58012
head 3.67372 0.986154 2.76444
rclavicle -1.78906e-014 -9.54166e-015
rhumerus -16.723 42.5854 -88.395
rradius 66.2016
rwrist 13.1126
rhand -22.7973 -7.88706
rfingers 7.12502
rthumb 3.6388 -37.8357
lclavicle -1.78906e-014 -9.54166e-015
lhumerus 2.16266 -13.1439 63.977
lradius 72.3887
lwrist -8.33141
lhand -23.7213 32.0988
lfingers 7.12502
lthumb 2.74651 62.0609
rfemur -29.2241 13.4842 5.33618
rtibia 61.8373
rfoot -29.2596 -2.57108
rtoes -13.3817
lfemur -24.6376 6.89714 -7.10119
ltibia 48.9098
lfoot -16.4163 13.6034
ltoes -3.58511
1829
root 4.02575 16.8243 -4.6784 -13.4137 -59.5827 12.5824
lowerback 13.3296 -0.167147 -1.05881
upperback 5.97725 -0.525873 -0.0168681
thorax -1.18895 -0.354769 0.654459
lowerneck 0.0571666 1.90437 -4.60344
upperneck 11.6412 2.01085 5.67968
head 3.69016 0.960289 2.78044
rclavicle 2.127e-014 -9.54166e-015
rhumerus -17.3055 43.3179 -88.9028
rradius 62.6096
rwrist 14.8538
rhand -20.7809 -8.6576
rfingers 7.12502
rthumb 5.58585 -38.564
lclavicle 2.127e-014 -9.54166e-015
lhumerus 0.480814 -13.2682 65.3786
lradius 72.5141
lwrist -7.91692
lhand -22.6743 32.689
lfingers 7.12502
lthumb 3.75761 62.6356
rfemur -29.4786 13.2166 5.38414
rtibia 61.817
rfoot -29.1483 -2.61002
rtoes -12.5189
lfemur -24.7674 6.09845 -7.18254
ltibia 48.3471
lfoot -16.6444 13.7412
ltoes -4.02291
1830
root 4.01891 16.8484 -4.73611 -13.3764 -59.0444 12.7109
lowerback 13.5021 -0.312279 -0.802787
upperback 6.01827 -0.69028 -0.0483907
thorax -1.23884 -0.432628 0.501995
lowerneck -0.0222454 1.86235 -4.5706
upperneck 11.6815 1.94308 5.79459
head 3.72368 0.933477 2.81548
rclavicle -4.90998e-014 -1.03368e-014
rhumerus -18.1315 44.4994 -89.5544
rradius 59.312
rwrist 15.4278
rhand -18.4368 -7.93054
rfingers 7.12502
rthumb 7.84875 -37.7648
lclavicle -4.90998e-014 -1.03368e-014
lhumerus -1.19425 -13.3823 66.7802
lradius 72.4522
lwrist -7.54253
lhand -21.9157 33.1821
lfingers 7.12502
lthumb 4.49018 63.1146
rfemur -29.4982 12.6668 5.37159
rtibia 61.7107
rfoot -29.0283 -2.56994
rtoes -12.177
lfemur -24.8127 4.90453 -7.34539
ltibia 47.7216
lfoot -16.9596 14.1237
ltoes -3.844
1831
root 3.99514 16.8817 -4.80465 -14.1805 -58.9711 13.6852
lowerback 13.7011 -0.196391 -1.16313
upperback 6.09707 -0.590617 -0.140166
thorax -1.26141 -0.38989 0.596824
lowerneck -0.172641 1.80133 -4.50931
upperneck 11.7285 1.85861 5.84226
head 3.77459 0.898478 2.8232
rclavicle -5.34731e-014 3.18055e-015
rhumerus -18.9768 45.8026 -90.3098
rradius 56.2476
rwrist 15.7675
rhand -15.001 -7.70396
rfingers 7.12502
rthumb 11.1638 -37.387
lclavicle -5.34731e-014 3.18055e-015
lhumerus -2.87666 -13.5864 68.117
lradius 72.3216
lwrist -7.24076
lhand -21.5854 33.3999
lfingers 7.12502
lthumb 4.80911 63.3254
rfemur -29.4878 12.7184 5.07123
rtibia 61.5748
rfoot -28.94 -2.51742
rtoes -12.1198
lfemur -24.3827 4.23144 -7.77546
ltibia 47.0035
lfoot -17.6137 14.454
ltoes -3.3893
1832
root 3.9797 16.9057 -4.86486 -14.5099 -59.0514 14.3511
lowerback 13.7852 -0.108653 -1.19572
upperback 6.07535 -0.483242 -0.245993
thorax -1.33182 -0.335045 0.490365
lowerneck -0.254219 1.73992 -4.40326
upperneck 11.6553 1.77706 5.86722
head 3.76964 0.865805 2.80997
rclavicle -2.0276e-014 7.95139e-015
rhumerus -19.9978 47.3235 -91.3116
rradius 53.4234
rwrist 15.5997
rhand -11.6148 -8.89842
rfingers 7.12502
rthumb 14.4282 -38.3769
lclavicle -2.0276e-014 7.95139e-015
lhumerus -4.64625 -13.9101 69.3809
lradius 72.3528
lwrist -6.63908
lhand -21.2886 33.8165
lfingers 7.12502
lthumb 5.09569 63.7352
rfemur -29.8174 12.8734 4.88095
rtibia 61.4547
rfoot -28.7771 -2.63257
rtoes -11.8525
lfemur -24.1915 3.74144 -8.00383
ltibia 46.2961
lfoot -18.4521 14.632
ltoes -2.40954
